<?xml version="1.0" encoding="UTF-8" standalone="no" ?>
<!DOCTYPE svg PUBLIC "-//W3C//DTD SVG 1.1//EN" "http://www.w3.org/Graphics/SVG/1.1/DTD/svg11.dtd">
<svg xmlns="http://www.w3.org/2000/svg" xmlns:xlink="http://www.w3.org/1999/xlink" version="1.1" width="50" height="50" viewBox="0 0 50 50" xml:space="preserve">
<desc>Created with Fabric.js 5.3.0</desc>
<defs>
</defs>
<g transform="matrix(1 0 0 1 26.3916881472 26.7573720006)" id="WZqY4JWQ3-r6zjvrB3stM"  >
<path style="stroke: rgb(0,0,0); stroke-width: 1; stroke-dasharray: none; stroke-linecap: butt; stroke-dashoffset: 0; stroke-linejoin: miter; stroke-miterlimit: 4; fill: rgb(0,0,0); fill-rule: nonzero; opacity: 1;"  transform=" translate(0, 0)" d="M 8.71956 11.94646 C 11.42431 11.94194 14.048449999999999 11.97681 14.048449999999999 11.97681 L 14.048449999999999 17.58235 L -17.50864 17.58235 L -17.50864 11.97681 L -13.01037 11.97681 C -13.01037 11.97681 -18.823520000000002 6.16366 -16.8858 -4.424569999999999 C -14.94808 -15.01281 -2.8373600000000003 -17.43495 -2.8373600000000003 -17.43495 C -2.8373600000000003 -17.43495 13.218 -19.9263 17.50866 -4.424570000000001 C 13.218 -2.694470000000001 12.11074 -1.7573800000000008 12.11074 -1.7573800000000008 C 12.11074 -1.7573800000000008 10.726659999999999 -7.261940000000001 7.7508799999999995 -8.71523 C 7.7508799999999995 -0.6183399999999999 7.7508799999999995 0.9041499999999996 7.7508799999999995 0.9041499999999996 L 1.9377299999999993 0.9041499999999996 L 1.9377299999999993 -11.5526 C 1.9377299999999993 -11.5526 0.2000199999999992 -12.10623 -1.3916700000000009 -11.5526 C -1.3916700000000009 -7.88478 -1.3916700000000009 0.9041499999999996 -1.3916700000000009 0.9041499999999996 L -7.19721 0.9041499999999996 L -7.19721 -8.71523 C -7.19721 -8.71523 -13.97922 -5.11661 -10.79583 4.225949999999999 C -7.61244 13.56851 1.4706099999999989 11.83841 5.5363500000000005 11.97682 C 6.49511 11.95674 7.61408 11.94831 8.719570000000001 11.94647 z" stroke-linecap="round" />
</g>
<g transform="matrix(0.987668626 0 0 1 22.1050136238 12.5750198177)" id="qjNiBc4VT-rLrvmP9CZdc"  >
<path style="stroke: rgb(0,0,0); stroke-width: 1; stroke-dasharray: none; stroke-linecap: butt; stroke-dashoffset: 0; stroke-linejoin: miter; stroke-miterlimit: 4; fill: rgb(0,0,0); fill-rule: nonzero; opacity: 1;"  transform=" translate(0, 0)" d="M -2.93737 -7.19723 L 2.9373799999999997 -7.19723 L 2.9373799999999997 7.19723 L -2.93737 7.19723 z" stroke-linecap="round" />
</g>
<g transform="matrix(1 0 0 1 31.2359788047 13.1286530357)" id="GCOvKVers3-UaXHsVyiyv"  >
<path style="stroke: rgb(0,0,0); stroke-width: 1; stroke-dasharray: none; stroke-linecap: butt; stroke-dashoffset: 0; stroke-linejoin: miter; stroke-miterlimit: 4; fill: rgb(0,0,0); fill-rule: nonzero; opacity: 1;"  transform=" translate(0, 0)" d="M -2.76817 -7.54325 L 2.7681600000000004 -7.54325 L 2.7681600000000004 7.543260000000001 L -2.76817 7.543260000000001 z" stroke-linecap="round" />
</g>
</svg>